<svg width="34" height="27" viewBox="0 0 34 27" fill="none" xmlns="http://www.w3.org/2000/svg">
<rect x="0.962891" y="8.3584" width="32.1074" height="14.7656" fill="#8C8C8C"/>
<path d="M33.4333 23.85H0.566667C0.226667 23.85 0 23.67 0 23.4V9.00003C0 8.28003 0.793333 7.65002 1.7 7.65002H32.3C33.2067 7.65002 34 8.28003 34 9.00003V23.4C34 23.67 33.7733 23.85 33.4333 23.85ZM1.13333 22.95H32.8667V9.00003C32.8667 8.73003 32.64 8.55003 32.3 8.55003H1.7C1.36 8.55003 1.13333 8.73003 1.13333 9.00003V22.95Z" fill="#8C8C8C"/>
<path d="M13.0333 8.55002H5.10001C4.76001 8.55002 4.53334 8.37002 4.53334 8.10002V4.50002C4.53334 3.78002 5.32667 3.15002 6.23334 3.15002H11.9C12.8067 3.15002 13.6 3.78002 13.6 4.50002V8.10002C13.6 8.37002 13.3733 8.55002 13.0333 8.55002ZM5.66667 7.65002H12.4667V4.50002C12.4667 4.23002 12.24 4.05002 11.9 4.05002H6.23334C5.89334 4.05002 5.66667 4.23002 5.66667 4.50002V7.65002ZM28.9 8.55002H20.9667C20.6267 8.55002 20.4 8.37002 20.4 8.10002V4.50002C20.4 3.78002 21.1933 3.15002 22.1 3.15002H27.7667C28.6733 3.15002 29.4667 3.78002 29.4667 4.50002V8.10002C29.4667 8.37002 29.24 8.55002 28.9 8.55002ZM21.5333 7.65002H28.3333V4.50002C28.3333 4.23002 28.1067 4.05002 27.7667 4.05002H22.1C21.76 4.05002 21.5333 4.23002 21.5333 4.50002V7.65002Z" fill="#8C8C8C"/>
<rect x="5.3457" y="3.92871" width="7.37109" height="3.71777" fill="#8C8C8C"/>
<rect x="21.3828" y="3.92871" width="7.37109" height="3.71777" fill="#8C8C8C"/>
</svg>
