<svg width="30" height="30" viewBox="0 0 30 30" fill="none" xmlns="http://www.w3.org/2000/svg">
<path d="M7.5 24.6799C5.31526 23.9077 3.75 21.8242 3.75 19.375V10.625C3.75 7.5184 6.2684 5 9.375 5H10V4.375C10 3.33947 10.8395 2.5 11.875 2.5H18.125C19.1605 2.5 20 3.33947 20 4.375V5H20.625C23.7316 5 26.25 7.5184 26.25 10.625V19.375C26.25 21.8242 24.6847 23.9077 22.5 24.6799V25.625C22.5 26.6605 21.6605 27.5 20.625 27.5H9.375C8.33947 27.5 7.5 26.6605 7.5 25.625V24.6799ZM8.75 24.9657V25.625C8.75 25.9702 9.02982 26.25 9.375 26.25H20.625C20.9702 26.25 21.25 25.9702 21.25 25.625V24.9657C21.0448 24.9884 20.8363 25 20.625 25H9.375C9.16374 25 8.95521 24.9884 8.75 24.9657ZM11.25 5H18.75V4.375C18.75 4.02982 18.4702 3.75 18.125 3.75H11.875C11.5298 3.75 11.25 4.02982 11.25 4.375V5ZM9.375 6.25C6.95875 6.25 5 8.20875 5 10.625V19.375C5 21.7912 6.95875 23.75 9.375 23.75H20.625C23.0412 23.75 25 21.7912 25 19.375V10.625C25 8.20875 23.0412 6.25 20.625 6.25H9.375ZM18.125 12.5H19.375C19.7202 12.5 20 12.7798 20 13.125V14.375C20 14.7202 19.7202 15 19.375 15H18.125C17.7798 15 17.5 14.7202 17.5 14.375V13.125C17.5 12.7798 17.7798 12.5 18.125 12.5ZM10.625 12.5H11.875C12.2202 12.5 12.5 12.7798 12.5 13.125V14.375C12.5 14.7202 12.2202 15 11.875 15H10.625C10.2798 15 10 14.7202 10 14.375V13.125C10 12.7798 10.2798 12.5 10.625 12.5ZM11.4331 18.5669C11.189 18.3229 11.189 17.9271 11.4331 17.6831C11.6771 17.439 12.0729 17.439 12.3169 17.6831C13.0311 18.3972 13.9131 18.75 15 18.75C16.0869 18.75 16.9689 18.3972 17.6831 17.6831C17.9271 17.439 18.3229 17.439 18.5669 17.6831C18.811 17.9271 18.811 18.3229 18.5669 18.5669C17.6144 19.5195 16.4131 20 15 20C13.5869 20 12.3856 19.5195 11.4331 18.5669Z" fill="white"/>
</svg>
